<svg id="Layer_1" data-name="Layer 1" xmlns="http://www.w3.org/2000/svg" xmlns:xlink="http://www.w3.org/1999/xlink" viewBox="0 0 500 382"><defs><style>.cls-1,.cls-10,.cls-11,.cls-13{fill:none;}.cls-2{clip-path:url(#clip-path);}.cls-3,.cls-5,.cls-8{fill:#4070f4;}.cls-15,.cls-3{opacity:0.4;}.cls-3,.cls-6{isolation:isolate;}.cls-4,.cls-6{fill:#0e2431;}.cls-6{opacity:0.1;}.cls-7,.cls-9{fill:#fff;}.cls-10,.cls-13,.cls-8,.cls-9{stroke:#000;}.cls-10,.cls-11,.cls-13,.cls-8,.cls-9{stroke-linecap:round;stroke-linejoin:round;}.cls-13,.cls-8,.cls-9{stroke-width:0.91px;}.cls-10,.cls-11{stroke-width:0.68px;}.cls-11{stroke:#fff;}.cls-12{opacity:0.5;}.cls-14{opacity:0.8;}</style><clipPath id="clip-path"><rect class="cls-1" width="500" height="382"/></clipPath></defs><g class="cls-2"><path class="cls-3" d="M412.5,55.81S373.68,3.87,309.3.22,209.09,40.44,182.8,73.36,76.68,87.27,28.39,137.75s-24.87,79.73-3.6,109,41.69,33.68,41.69,57.8,11.69,56.32,57.75,63.63,93.64-37.28,126.55-20.44,88.15,30,122,20.44,23.6-44.63,60.13-56.33,71.69-48.28,66.57-87.79-34.38-46.82-46.82-84.86S422.7,71.9,412.5,55.81Z"/><path class="cls-4" d="M306.19,380.24c83,0,150.32-1.71,150.32-3.83s-67.3-3.84-150.32-3.84-150.33,1.72-150.33,3.84S223.16,380.24,306.19,380.24Z"/><path class="cls-5" d="M337.59,19.75H196.34a8,8,0,0,0-8,8V82.92a8,8,0,0,0,8,8H337.59a8,8,0,0,0,8-8V27.71A8,8,0,0,0,337.59,19.75Z"/><path class="cls-6" d="M337.59,19.75H196.34a8,8,0,0,0-8,8V82.92a8,8,0,0,0,8,8H337.59a8,8,0,0,0,8-8V27.71A8,8,0,0,0,337.59,19.75Z"/><path class="cls-5" d="M188.38,78.37v25.69l14.32-16.5"/><path class="cls-6" d="M188.38,78.37v25.69l14.32-16.5"/><path class="cls-7" d="M309.31,58.77H207.86a2.93,2.93,0,0,1-1.09-.21,3.17,3.17,0,0,1-.92-.62,2.89,2.89,0,0,1-.83-2h0a2.86,2.86,0,0,1,.22-1.08,2.74,2.74,0,0,1,.61-.92,2.82,2.82,0,0,1,.92-.62,2.93,2.93,0,0,1,1.09-.21H309.31a2.8,2.8,0,0,1,2,.83,2.83,2.83,0,0,1,.83,2h0a2.83,2.83,0,0,1-2.84,2.84Z"/><path class="cls-7" d="M309.31,71.81H207.86A2.85,2.85,0,0,1,205,69h0a2.85,2.85,0,0,1,2.84-2.83H309.31A2.85,2.85,0,0,1,312.15,69h0a2.83,2.83,0,0,1-.83,2,2.87,2.87,0,0,1-2,.83Z"/><path class="cls-7" d="M213.52,45.74a10.2,10.2,0,1,0-10.19-10.2A10.2,10.2,0,0,0,213.52,45.74Z"/><path class="cls-5" d="M337.59,116H196.34a8,8,0,0,0-8,8v55.21a8,8,0,0,0,8,8H337.59a8,8,0,0,0,8-8V124A8,8,0,0,0,337.59,116Z"/><path class="cls-6" d="M337.59,116H196.34a8,8,0,0,0-8,8v55.21a8,8,0,0,0,8,8H337.59a8,8,0,0,0,8-8V124A8,8,0,0,0,337.59,116Z"/><path class="cls-5" d="M188.38,174.63v25.69l14.32-16.5"/><path class="cls-6" d="M188.38,174.63v25.69l14.32-16.5"/><path class="cls-7" d="M309.31,155H207.86a2.76,2.76,0,0,1-1.09-.22,2.85,2.85,0,0,1-1.75-2.62h0a2.85,2.85,0,0,1,2.84-2.84H309.31a2.84,2.84,0,0,1,2,.83,2.87,2.87,0,0,1,.83,2h0a2.83,2.83,0,0,1-2.84,2.84Z"/><path class="cls-7" d="M309.31,168.07H207.86a3,3,0,0,1-1.09-.22,2.82,2.82,0,0,1-.92-.62,2.74,2.74,0,0,1-.61-.92,2.86,2.86,0,0,1-.22-1.08h0a2.91,2.91,0,0,1,.22-1.09,2.84,2.84,0,0,1,.61-.92,3.17,3.17,0,0,1,.92-.62,2.93,2.93,0,0,1,1.09-.21H309.31a2.83,2.83,0,0,1,2.84,2.84h0a2.85,2.85,0,0,1-2.84,2.84Z"/><path class="cls-7" d="M213.52,142a10.2,10.2,0,1,0-10.19-10.2A10.19,10.19,0,0,0,213.52,142Z"/><path class="cls-4" d="M79.23,257c-.11,0-.59-7.54-.57-8,.29-5.57,4.12-16.17,10.15-17.79a7.61,7.61,0,0,1,3.08-.07,7.41,7.41,0,0,1,5,3.43,7.4,7.4,0,0,1,1,2.91c.69,4.35-2.13,9-5,12C89.45,253,79.23,257,79.23,257Z"/><path class="cls-4" d="M71.34,227.92c-.11,0,.55-7.54.66-8,1.13-5.47,6.51-15.37,12.72-16a7.35,7.35,0,0,1,5.69,2,7.34,7.34,0,0,1,2.31,5.56c0,4.42-3.47,8.56-6.78,11.1C82.05,225.51,71.34,227.91,71.34,227.92Z"/><path class="cls-4" d="M69.34,193.62c-.11,0,.57-7.54.66-8,1.12-5.47,6.51-15.37,12.73-16a7.41,7.41,0,0,1,7.43,4.53,7.52,7.52,0,0,1,.57,3c0,4.42-3.48,8.57-6.79,11.1C80.06,191.22,69.34,193.62,69.34,193.62Z"/><path class="cls-4" d="M65.89,161.38c-.11,0,.57-7.54.66-8,1.13-5.47,6.51-15.37,12.73-16a7.36,7.36,0,0,1,3,.39,7.37,7.37,0,0,1,4.38,4.14,7.32,7.32,0,0,1,.56,3c0,4.41-3.47,8.56-6.77,11.1C76.61,159,65.89,161.38,65.89,161.38Z"/><path class="cls-4" d="M55.61,135.46c-.1,0-1.46-7.42-1.48-7.9-.36-5.57,2.22-16.55,8-18.83a7.56,7.56,0,0,1,3-.43,7.39,7.39,0,0,1,6.66,5.61c1.2,4.25-1.08,9.18-3.61,12.5C65.31,130.32,55.62,135.46,55.61,135.46Z"/><path class="cls-4" d="M76.08,257.05c.11,0-3.18-6.87-3.43-7.22-3-4.73-11.5-12.1-17.55-10.56a7.46,7.46,0,0,0-4.61,3.88,7.4,7.4,0,0,0-.2,6c1.52,4.15,6.26,6.81,10.25,8C65.19,258.56,76.07,257.05,76.08,257.05Z"/><path class="cls-4" d="M69.75,224c.11,0-4.17-6.3-4.48-6.66-3.61-4.22-13.23-10.22-18.95-7.78A7.39,7.39,0,0,0,42,217.16a7.28,7.28,0,0,0,1,2.92c2.13,3.86,7.21,5.77,11.34,6.37C59.2,227.17,69.75,224,69.75,224Z"/><path class="cls-4" d="M67.91,191.68c.11,0-4.17-6.3-4.48-6.66-3.61-4.22-13.23-10.22-19-7.78A7.43,7.43,0,0,0,42,179.08a7.39,7.39,0,0,0-1.79,5.76,7.35,7.35,0,0,0,1,2.91c2.13,3.86,7.22,5.77,11.34,6.38C57.39,194.82,67.9,191.68,67.91,191.68Z"/><path class="cls-4" d="M64.8,162c.11,0-4.18-6.3-4.49-6.66-3.61-4.22-13.23-10.22-18.94-7.78a7.4,7.4,0,0,0-3.27,10.51c2.13,3.86,7.21,5.77,11.34,6.37C54.27,165.14,64.79,162,64.8,162Z"/><path class="cls-4" d="M55.67,136.44c.11,0-4.81-5.81-5.2-6.14-4.1-3.79-14.23-8.7-19.68-5.65a7.21,7.21,0,0,0-2.26,2.1,7.43,7.43,0,0,0-1.21,2.85,7.27,7.27,0,0,0,.06,3.08,7.58,7.58,0,0,0,1.31,2.8c2.54,3.6,7.81,4.94,12,5.08C45.56,140.71,55.66,136.45,55.67,136.44Z"/><path class="cls-4" d="M42.55,115.32c.11,0-1.62-7.39-1.78-7.84-1.9-5.26-8.64-14.29-14.88-14.08a7.36,7.36,0,0,0-5.34,2.78,7.16,7.16,0,0,0-1.37,2.76,7.44,7.44,0,0,0-.13,3.08c.59,4.38,4.65,8,8.29,10C31.59,114.45,42.54,115.32,42.55,115.32Z"/><path class="cls-4" d="M89.74,295.93s-1.29-2.95-3.32-8.11-4.81-12.6-7.76-21.65c-1.48-4.52-3-9.45-4.45-14.7-.75-2.65-1.43-5.31-2.16-8.16l-.93-4.22c-.33-1.39-.51-2.92-.79-4.4a167.83,167.83,0,0,1-1.78-18.31c-.31-6.25-.43-12.56-.58-18.87s-.32-12.61-.82-18.78a127.58,127.58,0,0,0-2.58-17.93,94.54,94.54,0,0,0-5.37-16.05,126.54,126.54,0,0,0-6.89-13.66c-2.32-4.13-4.69-7.75-6.81-11s-4.14-5.89-5.81-8c-3.35-4.41-5.44-6.76-5.44-6.76s2.15,2.32,5.59,6.65c1.72,2.16,3.75,4.81,6,8s4.66,6.75,7.08,10.83a130.51,130.51,0,0,1,7.19,13.52,97.32,97.32,0,0,1,5.79,16.14,128.37,128.37,0,0,1,3,18c.64,6.22,1,12.55,1.21,18.86s.54,12.61,1,18.78a163.9,163.9,0,0,0,2.19,17.94c.3,1.43.48,2.82.85,4.24l1,4.2c.74,2.64,1.5,5.37,2.29,7.94,1.55,5.17,3.15,10,4.72,14.43,3.1,8.9,6,16.18,8.14,21.26s3.47,8,3.47,8a2.12,2.12,0,0,1,.27.85,2.24,2.24,0,0,1-.54,1.67,2.24,2.24,0,0,1-.72.54,2.2,2.2,0,0,1-2.5-.46,2.22,2.22,0,0,1-.49-.75h0Z"/><path class="cls-4" d="M118.06,249.31c-.11,0,1.58-7.39,1.73-7.85,1.85-5.27,8.54-14.35,14.78-14.17a7.57,7.57,0,0,1,3,.81,7.48,7.48,0,0,1,2.38,2,7.35,7.35,0,0,1,1.53,5.83c-.56,4.38-4.6,8-8.22,10.08C129,248.39,118.07,249.31,118.06,249.31Z"/><path class="cls-4" d="M118.76,219.23c-.11,0,2.68-7.08,2.91-7.5,2.63-4.92,10.61-12.88,16.76-11.77a7.31,7.31,0,0,1,2.82,1.25,7.36,7.36,0,0,1,3,5.21,7.37,7.37,0,0,1-.32,3.06c-1.2,4.25-5.76,7.22-9.62,8.72C129.71,220,118.76,219.23,118.76,219.23Z"/><path class="cls-4" d="M126.59,185.78c-.11,0,2.68-7.07,2.91-7.49,2.63-4.92,10.6-12.88,16.76-11.78a7.39,7.39,0,0,1,5.83,6.47,7.39,7.39,0,0,1-.32,3.06c-1.2,4.24-5.76,7.22-9.62,8.72C137.54,186.53,126.6,185.78,126.59,185.78Z"/><path class="cls-4" d="M132.44,153.93c-.1,0,2.69-7.07,2.91-7.49,2.64-4.92,10.61-12.88,16.77-11.77A7.47,7.47,0,0,1,157,138.2a7.42,7.42,0,0,1,.63,6c-1.21,4.25-5.76,7.22-9.62,8.72C143.41,154.62,132.46,153.93,132.44,153.93Z"/><path class="cls-4" d="M130,126.12c-.11,0,.72-7.53.83-8,1.2-5.45,6.83-15.22,13.06-15.78a7.38,7.38,0,0,1,7.82,7.74c0,4.41-3.6,8.49-7,11C140.71,123.93,130,126.11,130,126.12Z"/><path class="cls-4" d="M115,248.5c.11,0-1.1-7.48-1.2-7.95-1.51-5.38-7.58-14.88-13.83-15.11a7.53,7.53,0,0,0-3,.61,7.38,7.38,0,0,0-4.07,4.45,7.39,7.39,0,0,0-.35,3.06c.28,4.4,4.07,8.3,7.54,10.59C104.16,246.86,115,248.5,115,248.5Z"/><path class="cls-4" d="M118.33,215c.12,0-2.22-7.22-2.41-7.67-2.31-5.09-9.74-13.56-16-12.85a7.34,7.34,0,0,0-2.9,1,7.62,7.62,0,0,0-2.23,2.15,7.48,7.48,0,0,0-1.15,2.87,7.67,7.67,0,0,0,.12,3.09c.94,4.3,5.28,7.58,9.07,9.33C107.35,215.06,118.31,215,118.33,215Z"/><path class="cls-4" d="M125.77,183.51c.12,0-2.21-7.22-2.41-7.67-2.3-5.09-9.74-13.56-16-12.85a7.52,7.52,0,0,0-2.9,1.06,7.39,7.39,0,0,0-3.35,5,7.6,7.6,0,0,0,.12,3.08c.94,4.31,5.28,7.59,9.07,9.34C114.79,183.53,125.77,183.51,125.77,183.51Z"/><path class="cls-4" d="M131.23,154.16c.12,0-2.21-7.21-2.41-7.67-2.31-5.09-9.74-13.55-15.95-12.84a7.21,7.21,0,0,0-2.9,1.06,7.31,7.31,0,0,0-2.21,2.15,7.42,7.42,0,0,0-1,5.94c.94,4.3,5.28,7.59,9.07,9.33C120.26,154.19,131.22,154.16,131.23,154.16Z"/><path class="cls-4" d="M129.74,127.07c.11,0-3-6.94-3.24-7.36-2.85-4.81-11.17-12.4-17.27-11a7.61,7.61,0,0,0-2.76,1.37,7.51,7.51,0,0,0-2,2.38,7.41,7.41,0,0,0-.36,6c1.4,4.18,6.07,7,10,8.28C118.83,128.29,129.73,127.07,129.74,127.07Z"/><path class="cls-4" d="M123.16,103.09c.11,0,.54-7.54.52-8-.32-5.57-4.21-16.15-10.25-17.73a7.39,7.39,0,0,0-8,3.41,7.57,7.57,0,0,0-1,2.92c-.67,4.36,2.19,9,5.09,12C112.91,99.14,123.16,103.08,123.16,103.09Z"/><path class="cls-4" d="M117.07,289.66s-.39-3.18-.87-8.72-1-13.44-1.29-23c-.13-4.81-.18-9.91-.08-15.37,0-2.74.14-5.48.24-8.41l.31-4.31c.07-1.44.34-2.95.49-4.44a167.76,167.76,0,0,1,3.45-18c1.48-6,3.17-12.16,4.81-18.25s3.27-12.17,4.55-18.23A127.64,127.64,0,0,0,131.29,153a94.86,94.86,0,0,0-.58-16.93,129.28,129.28,0,0,0-2.68-15c-1-4.61-2.3-8.77-3.43-12.44s-2.28-6.82-3.26-9.4c-2-5.16-3.29-8-3.29-8s1.39,2.84,3.46,8c1,2.56,2.23,5.7,3.48,9.34s2.55,7.79,3.7,12.4a130.66,130.66,0,0,1,3,15,96.22,96.22,0,0,1,1,17.13,128,128,0,0,1-2.25,18.2c-1.2,6.15-2.64,12.31-4.17,18.43s-3.07,12.24-4.4,18.28a165.27,165.27,0,0,0-3,17.82c-.12,1.46-.35,2.85-.38,4.32l-.22,4.32c0,2.74-.1,5.58,0,8.26,0,5.4.18,10.5.41,15.2.45,9.42,1.2,17.23,1.77,22.69s1,8.54,1,8.54a2.15,2.15,0,0,1-.33,1.73,2.22,2.22,0,0,1-.64.62,2.18,2.18,0,0,1-.85.31,2.06,2.06,0,0,1-.89,0,2.36,2.36,0,0,1-.81-.4,2.28,2.28,0,0,1-.57-.7,2.31,2.31,0,0,1-.25-.86v-.06Z"/><path class="cls-4" d="M131,369.19H80.11l-14.33-83.4h79.56Z"/><path class="cls-8" d="M220.72,377.07A110.73,110.73,0,1,0,110,266.34,110.73,110.73,0,0,0,220.72,377.07Z"/><path class="cls-4" d="M191.38,339.14a75.3,75.3,0,0,1-25.25-15.56,69.21,69.21,0,0,1-16.72-25.26,90.27,90.27,0,0,1-6-33.59A79.61,79.61,0,0,1,148.5,236a72,72,0,0,1,13.77-22.91,91.9,91.9,0,0,1,44-26.72,98.92,98.92,0,0,1,25.5-3.37,87.26,87.26,0,0,1,21.17,2.52,68.7,68.7,0,0,1,19,7.89,63.12,63.12,0,0,1,15.47,13.11,57.65,57.65,0,0,1,10.4,18.87,75.32,75.32,0,0,1,3.79,24.33,67.55,67.55,0,0,1-16.08,43.37,59.22,59.22,0,0,1-15.64,12.66,34.37,34.37,0,0,1-16.65,4.73,18.44,18.44,0,0,1-11.2-3.68,12.94,12.94,0,0,1-5.3-10.41q-10.31,14.51-27.85,14.51-14.31,0-22.86-9.78t-8.51-24.05a63.78,63.78,0,0,1,3.73-21.24,71.62,71.62,0,0,1,10.14-19.24,50.29,50.29,0,0,1,16.14-14,41.88,41.88,0,0,1,20.66-5.41,30.1,30.1,0,0,1,14.43,3.52,23.72,23.72,0,0,1,10,10.25l1-3a8.57,8.57,0,0,1,13.23-4.21,5.67,5.67,0,0,1,2.1,4.73,7.75,7.75,0,0,1-.42,2.52l-14.78,49.61q-2.52,8.51-2.52,11.66,0,5.37,5.46,5.37,7.14,0,14-6.57a48.4,48.4,0,0,0,11.2-17.45,60.86,60.86,0,0,0,4.3-22.55,65.37,65.37,0,0,0-2.94-20.08,48.71,48.71,0,0,0-8-15.5,47.33,47.33,0,0,0-12-10.73,52.47,52.47,0,0,0-14.82-6.41,65.14,65.14,0,0,0-16.5-2,76,76,0,0,0-20.87,2.94,74.76,74.76,0,0,0-19.7,8.85,77.45,77.45,0,0,0-16.56,14.08,62,62,0,0,0-11.46,19.6A68.62,68.62,0,0,0,159.11,266a74.85,74.85,0,0,0,5.25,28.75,54.38,54.38,0,0,0,14.35,20.71,64.31,64.31,0,0,0,20.82,12.15,73.79,73.79,0,0,0,25.07,4.21,89.26,89.26,0,0,0,26.91-4.1,8.21,8.21,0,0,1,2.73-.43,6.12,6.12,0,0,1,2.58.46,6.2,6.2,0,0,1,2.15,1.49,6.36,6.36,0,0,1,1.79,4.46,5.56,5.56,0,0,1-4.3,5.9,117.67,117.67,0,0,1-33.53,5.14A88.5,88.5,0,0,1,191.38,339.14Zm38-47.72A26.29,26.29,0,0,0,239,278.19l9.62-33.84L248,243a16.11,16.11,0,0,0-2.21-3.11,34.11,34.11,0,0,0-3.73-3.68,18.69,18.69,0,0,0-5.78-3.15,22.84,22.84,0,0,0-16.72.58,27.6,27.6,0,0,0-7.83,5.1,42.82,42.82,0,0,0-6.36,7.47,49.38,49.38,0,0,0-4.81,9,55.25,55.25,0,0,0-3,9.73,45.79,45.79,0,0,0-1,9.62,47.7,47.7,0,0,0,.37,6.21,28.1,28.1,0,0,0,1.21,5.36,17.65,17.65,0,0,0,2.15,4.46,13.22,13.22,0,0,0,3.15,3.31,13.53,13.53,0,0,0,4.36,2.1,20.19,20.19,0,0,0,5.68.74,26,26,0,0,0,15.95-5.26Z"/><path class="cls-9" d="M371.3,173.18s-3.61,6.71-4.14,7.66-2.41,6-1.89,7.21a2.91,2.91,0,0,0,2.27,2.08c1.15.2,2.08,2.28,4,2.65a20.85,20.85,0,0,0,3.61.37,2.48,2.48,0,0,0,1,.43,2.32,2.32,0,0,0,1.08-.06c1.13-.37,2.08-1,2.84-4.16a12,12,0,0,0,.37-4.91L380,178Z"/><path class="cls-9" d="M392.14,353.92S387,362.34,387,364.31s7.07,5.72,10.1,7.07,8.42,2.41,12.8,3,13.47,2.41,10.82-1-18.85-12.46-19.53-13.47a18.89,18.89,0,0,0-2.79-2.72Z"/><path class="cls-9" d="M400.2,367.09l1.8,2.7a21.62,21.62,0,0,0,7.67,7c4.81,2.6,12.22,5.57,18.69,3.79,10.61-2.92-16.09-19-16.09-19S402.74,368.18,400.2,367.09Z"/><path class="cls-10" d="M403.25,368.36a21.86,21.86,0,0,0,12.46,9c8.72,2.49,11.21,1.87,13.08-.62"/><path class="cls-10" d="M387.68,362.76s9.62,6.89,14.31,7"/><path class="cls-4" d="M366.8,175.58s8.54,14.16,10.37,17.44,24.85,29.58,34,52.31,17.92,43.17,17.56,49.74-30.36,62.11-30.36,62.11l-6.22-3.3s9.51-52.3,8.42-57.8-34.75-60-34.75-60-15.73-11-22.31-23.78"/><path class="cls-4" d="M368,210.9s-4.81,10.25-4.81,11.7,26.7,80.11,34.38,98a364.71,364.71,0,0,1,12.81,35.12s2.92,3.6.73,7.31-11,6.22-12.79,2.92-19.75-20.44-27.43-37.68S352.23,281.85,346,270.88a393.16,393.16,0,0,1-21.95-43.53c-8.05-19-16.34-39.62-16.34-39.62a83.5,83.5,0,0,0,32.18-3.61c16.83-5.48,24-16,24-16s4.28,10.94,5.39,13.06"/><path class="cls-11" d="M370.5,241.38l-8.42-21.9,9.43-8.08"/><path class="cls-11" d="M379.59,218.8l-17.51.68s0-6.74-3-11.11-3.7-5.06-4-6.4a12.81,12.81,0,0,1,0-3.71"/><path class="cls-11" d="M401.83,292.24s11.11,5.72,18.86,5.05"/><path class="cls-11" d="M403.85,295.6s7.75,6.4,14.43,8.08"/><path class="cls-11" d="M359.39,194.56c-.34,1,1.35,5.72,2.41,8.08s4.37,4,4.37,5.73-4.37,4.71-4.37,4.71"/><path class="cls-11" d="M330.43,203.31s-2,6.74-5.39,9.43l-3.36,2.7"/><path class="cls-11" d="M317,202s5.72,18.85,14.14,33.35,27.66,45.8,28.29,51.86,0,12.13,4.71,15.16,4.38,4.37,5.05,8.42a38.91,38.91,0,0,0,2.7,8.41S385.31,342,390,350.44a131.6,131.6,0,0,0,11.65,16.76"/><path class="cls-9" d="M307.77,187.73s.77,8.51,4.14,11.21,13.47,5.05,27.28,2.4,28.95-14.43,30.3-18.52S364,168.15,364,168.15s-8,11.3-30.18,15S307.77,187.73,307.77,187.73Z"/><path class="cls-7" d="M396.53,105.19c-5.49-3.61-48.29-36.94-52.3-38.41s-12,0-12,0-24.84,3-30,5.12c-.48.2-11.67,6.62-12,7-4,3.29-21.65,11.4-26.38,21.64-5.38,11.6,41.86,81.38,44.06,87.24s13.73,7.28,24.34,5.82,19.92-3.61,27.6-12.4a27.09,27.09,0,0,0,3.48-5.71,11,11,0,0,0,.79-7.34c-2.74-11.42-9.74-44.36-14.36-66.14,7.7,5,23.69,15.06,33,18.62,12.44,4.81,21.95,1.46,21.95-2.56S402,108.85,396.53,105.19Z"/><g class="cls-12"><path class="cls-5" d="M349.13,93.29a36.37,36.37,0,0,0,10.25,2.19c4.39,0,1.83,1.82,0,2.56s11.7-1.1,11.34,1.09-9.93,6.59-9.93,6.59a53.32,53.32,0,0,0,20.85,6.58c12.81,1.47,4.81,9.14,4.81,9.14s-20.59-7.56-36.81-19.51Z"/></g><g class="cls-12"><g class="cls-12"><path class="cls-5" d="M284.38,118.16s-2.92,4.81-1.46,5.12,16.46-5.86,11.34-.73-11.34,5.12-8.78,6.58,9.14,1.46,6.95,2.92,2.19,8,13.17,21.21,15.73,22.31,27.8,28.53,20.12,6.22,12.81,8-15,2.95-15.37,6.2c0,0,.36,2.56-4,4.39s-6.95,1.46-10.24,0-4.4-1.47-5.13-3.3-3.68-9.43-3.68-9.43l-5.24-11.22-1.69-2.4-1.46-1.1-25.61-43.89Z"/></g></g><path class="cls-13" d="M396.53,105.19c-5.49-3.61-48.29-36.94-52.3-38.41s-12,0-12,0-24.84,3-30,5.12c-.48.2-11.67,6.62-12,7-4,3.29-21.65,11.4-26.38,21.64-5.38,11.6,41.86,81.38,44.06,87.24s13.73,7.28,24.34,5.82,19.92-3.61,27.6-12.4a27.09,27.09,0,0,0,3.48-5.71,11,11,0,0,0,.79-7.34c-2.74-11.42-9.74-44.36-14.36-66.14,7.7,5,23.69,15.06,33,18.62,12.44,4.81,21.95,1.46,21.95-2.56S402,108.85,396.53,105.19Z"/><path class="cls-7" d="M269.59,93s-4.39,4.81-6.1,7c-9.16,11.79-38.32,49.49-38.6,52.54s1.07,5.1,8.2,7.84,54.83-45.07,54.83-45.07"/><g class="cls-12"><g class="cls-14"><path class="cls-5" d="M272.31,92.19l-35.12,49s3.61,4,8.05,8,12,6.58,6.22,6.21-16.84-4.81-16.84-4.81-3.3,2.57.73,5.13,4.81.73,16.47,6.58S282.25,172,282.25,172l-1.51,3.08L231,162.35s-7.22-3.61-6.19-9.62,17.84-25.25,17.84-25.25L266.68,96S268.93,92.6,272.31,92.19Z"/></g></g><path class="cls-13" d="M269.59,93s-4.39,4.81-6.1,7c-9.16,11.79-38.32,49.49-38.6,52.54s1.07,5.1,8.2,7.84,54.83-45.07,54.83-45.07"/><path class="cls-10" d="M366.13,90.82l-16.5,11.11c2.4-.33,13.8-4.37,13.8-4.37"/><path class="cls-10" d="M365.45,97.22l3.7-.67"/><path class="cls-13" d="M243.21,141a17.48,17.48,0,0,0-7.42,1.4"/><path class="cls-10" d="M279.16,124.42s9.26-2.84,11.73-4.72"/><path class="cls-10" d="M293.16,118.76s1.52-1.32,2.08-1.32"/><path class="cls-13" d="M349.63,102l-1.51-15.47"/><path class="cls-7" d="M224.8,152.73s-2.12,8.14,11.53,11.52c6.48,1.6,49.38,12,49.38,12s3.83-8.23,1.64-8.23-41.69-26.33-41.69-26.33"/><g class="cls-12"><path class="cls-5" d="M272.31,92.19l-35.12,49s3.61,4,8.05,8,12,6.58,6.22,6.21-16.84-4.81-16.84-4.81-3.3,2.57.73,5.13,4.81.73,16.47,6.58S282.25,172,282.25,172l-1.32,3.15-50-12.76s-9.46-4.48-6.18-9.62c3.73-5.9,17.84-25.26,17.84-25.26l24.55-31.27a5.42,5.42,0,0,1,5.14-4Z"/></g><path class="cls-13" d="M224.8,152.73s-2.12,8.14,11.53,11.52c6.48,1.6,49.38,12,49.38,12s3.83-8.23,1.64-8.23-41.69-26.33-41.69-26.33"/><path class="cls-9" d="M287.35,168.1s14.09,6.58,15.18,8.42,3.61,11.34,3.61,14.26-.36,2.93-2.19,2.93-6.58-7-7.68-8.42-3.61-1.47-7-3.61a8.07,8.07,0,0,1-3.6-5.3Z"/><path class="cls-13" d="M281.34,174.92l2.19-6.79"/><g class="cls-15"><path class="cls-5" d="M314.27,103s-22.56-12.84-30.66-11.68-15,2.31-15,2.31l15-10.51C291,86.59,301.86,94.53,314.27,103Z"/></g><path class="cls-7" d="M388.12,116.89s-3.61,12.44-5.12,19.75-11.7,36.54-11.7,36.54l8.78,5.48s19.38-40.24,23-49,2.56-15.35-1.1-19"/><path class="cls-13" d="M388.12,116.89s-3.61,12.44-5.12,19.75-11.7,36.54-11.7,36.54l8.78,5.48s19.38-40.24,23-49,2.56-15.35-1.1-19"/><path d="M373,169c.66,0,9,4.61,9,4.61Z"/><path class="cls-7" d="M315.27,103c-2-.34-12.8-7.41-20.21-13.14s-11.45-6.73-11.45-6.73l-5.05,3.37a9.74,9.74,0,0,1,.68-7.41c2-3.71,9.09-7.41,16.16-10.1s15.15-5.05,20.2-5.05,6.4,2,6.4,4.71,0,11.11-1.68,17.51S315.27,103,315.27,103Z"/><g class="cls-12"><g class="cls-12"><path class="cls-5" d="M312.09,67.83S309,77.16,305.87,80a45.77,45.77,0,0,1-7.78,5.29s-1.86-6.53-6.53-6.53-11.81,3.06-11.81,3.06,0-2.49,5.91-5.61l5.9-3.11,13.69-5.29Z"/></g></g><path class="cls-13" d="M315.27,103c-2-.34-12.8-7.41-20.21-13.14s-11.45-6.73-11.45-6.73l-5.05,3.37a9.74,9.74,0,0,1,.68-7.41c2-3.71,9.09-7.41,16.16-10.1s15.15-5.05,20.2-5.05,6.4,2,6.4,4.71,0,11.11-1.68,17.51S315.27,103,315.27,103Z"/><path class="cls-7" d="M285.33,60.2a34.52,34.52,0,0,1,8.11,15.36c2.14,9.51,15.9,20.65,19.24,20.65s3.07-16.31,2-21.06-5.58-17.51-5.58-17.51S291.55,49.22,285.33,60.2Z"/><g class="cls-12"><g class="cls-12"><path class="cls-5" d="M312.09,67.83S309,77.16,305.87,80a45.77,45.77,0,0,1-7.78,5.29s-1.86-6.53-6.53-6.53-11.81,3.06-11.81,3.06,0-2.49,5.91-5.61l5.9-3.11,13.69-5.29Z"/></g></g><path class="cls-13" d="M285.33,60.2a34.52,34.52,0,0,1,8.11,15.36c2.14,9.51,15.9,20.65,19.24,20.65s3.07-16.31,2-21.06-5.58-17.51-5.58-17.51S291.55,49.22,285.33,60.2Z"/><path class="cls-7" d="M273.74,42.57a126.83,126.83,0,0,0,9.54,20.25c5.55,9.14,16.28,14.3,22.23,11.92s10-10,8.42-22c-.35-2.62-2.63-3.69-3.37-6-2.62-8.42-5.3-16.53-6.24-19.63-1.2-4-10.72-7.95-20.65-5.16S272.15,33,273.74,42.57Z"/><g class="cls-12"><path class="cls-5" d="M306.67,35.28S303.06,38,295,36.42s-13.68-1.21-13.37.93.94,5,.94,5-9.73-8.42-.91-10.67c6.34-1.63,10,.87,11.58,1.21S306.67,35.28,306.67,35.28Z"/></g><path class="cls-13" d="M273.74,42.57a126.83,126.83,0,0,0,9.54,20.25c5.55,9.14,16.28,14.3,22.23,11.92s10-10,8.42-22c-.35-2.62-2.63-3.69-3.37-6-2.62-8.42-5.3-16.53-6.24-19.63-1.2-4-10.72-7.95-20.65-5.16S272.15,33,273.74,42.57Z"/><path class="cls-7" d="M280.88,55.67s-6.35-2.78-6.74,0,2.4,4.81,5.16,6a3.87,3.87,0,0,0,2.24.47,3.94,3.94,0,0,0,2.12-.86"/><path class="cls-13" d="M280.88,55.67s-6.35-2.78-6.74,0,2.4,4.81,5.16,6a3.87,3.87,0,0,0,2.24.47,3.94,3.94,0,0,0,2.12-.86"/><path class="cls-7" d="M306.85,40s-7.07-1.68-4,7.75c.6,1.86,4.71,4,4.71,4s-.34,3-2,3.37"/><path class="cls-13" d="M306.85,40s-7.07-1.68-4,7.75c.6,1.86,4.71,4,4.71,4s-.34,3-2,3.37"/><path class="cls-7" d="M301.86,61.86s-5.05,1-7.07-1.34Z"/><path class="cls-13" d="M301.86,61.86s-5.05,1-7.07-1.34"/><path class="cls-7" d="M294.39,46s-3.71-1.35-5.73.33a6.8,6.8,0,0,0-2.4,3"/><path class="cls-13" d="M294.39,46s-3.71-1.35-5.73.33a6.8,6.8,0,0,0-2.4,3"/><path class="cls-4" d="M294.07,54.27c.59-.26.69-1.37.22-2.48s-1.35-1.8-2-1.55-.7,1.37-.22,2.48S293.47,54.53,294.07,54.27Z"/><path class="cls-4" d="M306.17,48.38c.6-.26.7-1.37.22-2.48s-1.34-1.8-1.94-1.55-.7,1.37-.22,2.48S305.58,48.63,306.17,48.38Z"/><path class="cls-4" d="M279.11,57.28s4-2.92,3.3-5.48-2.19-2.56-.73-4,2.56-2.19,2.19-4.39-6.22-5.86-4.39-8.05,1.09-4.81,16.09-1.09,24.51-2.19,20.12-7.69-8.05-6.21-8.05-6.21,8.42-3.61,1.47-7.32-22.68-3.6-31.46,3.3-6.95,12.81-6.95,12.81-4.81.73-5.13,8S279.11,57.28,279.11,57.28Z"/><path class="cls-11" d="M279,32.28s1.2-3.73,7.44-3.73,11.8,5.28,20.22,3.42,3.72-6.82,3.72-6.82"/><path class="cls-11" d="M276.23,31.35s.6-7.69,7.43-9.43,15.83,1.69,18.32.75"/><path class="cls-11" d="M272.81,31.66s-3.72,0-4,5a8,8,0,0,0,2.79,7.13"/><path class="cls-11" d="M276.23,34.77a3.8,3.8,0,0,0-1.43.89,3.93,3.93,0,0,0-.94,1.4,4.1,4.1,0,0,0-.26,1.66,4,4,0,0,0,.45,1.63"/><path class="cls-11" d="M273.44,44.69,275,46.87"/></g></svg>